name rise42.5664peak47.7979fall81.9185.mot
datacolumns 19
datarows 15
range 0.91999500000000 0.94333200000000
endheader
time	ground_force1_vx	ground_force1_vy	ground_force1_vz	ground_force1_px	ground_force1_py	ground_force1_pz	ground_force2_vx	ground_force2_vy	ground_force2_vz	ground_force2_px	ground_force2_py	ground_force2_pz	ground_torque1_x	ground_torque1_y	ground_torque1_z	ground_torque2_x	ground_torque2_y	ground_torque2_z	
0.91999500000000	-36.40668500000000	812.61728700000003	53.23307100000000	0.05411700000000	0.00000000000000	0.09617800000000	0.00000000000000	0.00000000000000	0.00000000000000	0.00000000000000	0.00000000000000	0.00000000000000	0.00000000000000	11.93575400000000	0.00000000000000	0.00000000000000	0.00000000000000	0.00000000000000	
0.92167200000000	-37.08995100000000	811.63718700000004	53.19300300000000	0.05330100000000	0.00000000000000	0.09608800000000	0.00000000000000	0.00000000000000	0.00000000000000	0.00000000000000	0.00000000000000	0.00000000000000	0.00000000000000	11.90964900000000	0.00000000000000	0.00000000000000	0.00000000000000	0.00000000000000	
0.92332900000000	-37.79306000000000	810.54893100000004	53.13370000000000	0.05247900000000	0.00000000000000	0.09599700000000	-1.00453800000000	3.91375900000000	0.77713600000000	0.00000000000000	0.00000000000000	0.00000000000000	0.00000000000000	11.88666900000000	0.00000000000000	0.00000000000000	0.16405600000000	0.00000000000000	
0.92499200000000	-38.51576300000000	809.34959800000001	53.05446900000000	0.05165100000000	0.00000000000000	0.09590300000000	-1.62227100000000	7.31940200000000	1.32931900000000	0.00000000000000	0.00000000000000	0.00000000000000	0.00000000000000	11.86686300000000	0.00000000000000	0.00000000000000	0.28913300000000	0.00000000000000	
0.92671200000000	-39.25773100000000	808.03625399999999	52.95466100000000	0.05081700000000	0.00000000000000	0.09580800000000	-2.32377800000000	11.40306100000000	1.97194000000000	0.00000000000000	0.00000000000000	0.00000000000000	0.00000000000000	11.85026600000000	0.00000000000000	0.00000000000000	0.43627400000000	0.00000000000000	
0.92832800000000	-40.01855800000000	806.60595400000000	52.83366400000000	0.04997900000000	0.00000000000000	0.09571100000000	-3.08852100000000	16.11246500000000	2.69086500000000	0.00000000000000	0.00000000000000	0.00000000000000	0.00000000000000	11.83690300000000	0.00000000000000	0.00000000000000	0.60271800000000	0.00000000000000	
0.92999500000000	-40.79775600000000	805.05574999999999	52.69091000000000	0.04913500000000	0.00000000000000	0.09561100000000	-3.89057500000000	21.36435900000000	3.46697700000000	0.00000000000000	0.00000000000000	0.00000000000000	0.00000000000000	11.82678600000000	0.00000000000000	0.00000000000000	0.78456600000000	0.00000000000000	
0.93166300000000	-41.59475400000000	803.38268600000004	52.52587600000000	0.04828700000000	0.00000000000000	0.09551000000000	-4.70031800000000	27.05061600000000	4.27743700000000	0.27067400000000	0.00000000000000	-0.06891400000000	0.00000000000000	11.81991600000000	0.00000000000000	0.00000000000000	1.81091000000000	0.00000000000000	
0.93332500000000	-42.40889900000000	801.58380599999998	52.33808700000000	0.04743500000000	0.00000000000000	0.09540600000000	-5.48656700000000	33.04711700000000	5.09738300000000	0.27256200000000	0.00000000000000	-0.06978600000000	0.00000000000000	11.81628000000000	0.00000000000000	0.00000000000000	2.18130300000000	0.00000000000000	
0.93499700000000	-43.23945300000000	799.65615500000001	52.12711500000000	0.04657900000000	0.00000000000000	0.09529900000000	-6.21890200000000	39.22419900000000	5.90183000000000	0.27433600000000	0.00000000000000	-0.07059400000000	0.00000000000000	11.81584900000000	0.00000000000000	0.00000000000000	2.55264500000000	0.00000000000000	
0.93666900000000	-44.08559200000000	797.59678399999996	51.89258200000000	0.04572000000000	0.00000000000000	0.09519100000000	-6.86986800000000	45.45721700000000	6.66752800000000	0.27601400000000	0.00000000000000	-0.07134500000000	0.00000000000000	11.81858300000000	0.00000000000000	0.00000000000000	2.91535500000000	0.00000000000000	
0.93832600000000	-44.94641100000000	795.40275699999995	51.63416400000000	0.04485800000000	0.00000000000000	0.09508000000000	-7.41675600000000	51.63581300000000	7.37451600000000	0.27760700000000	0.00000000000000	-0.07204800000000	0.00000000000000	11.82442700000000	0.00000000000000	0.00000000000000	3.26101400000000	0.00000000000000	
0.93999200000000	-45.82091500000000	793.07114999999999	51.35158500000000	0.04399400000000	0.00000000000000	0.09496700000000	-7.84280000000000	57.67091800000000	8.00724100000000	0.27912700000000	0.00000000000000	-0.07270800000000	0.00000000000000	11.83331000000000	0.00000000000000	0.00000000000000	3.58285700000000	0.00000000000000	
0.94166600000000	-46.70802800000000	790.59906200000000	51.04462500000000	0.04312800000000	0.00000000000000	0.09485100000000	-8.13773900000000	63.49903500000000	8.55515300000000	0.28058000000000	0.00000000000000	-0.07332900000000	0.00000000000000	11.84514600000000	0.00000000000000	0.00000000000000	3.87606100000000	0.00000000000000	
0.94333200000000	-47.60658800000000	787.98361899999998	50.71312000000000	0.04226000000000	0.00000000000000	0.09473300000000	-8.29775100000000	69.08374600000000	9.01280000000000	0.28197500000000	0.00000000000000	-0.07391600000000	0.00000000000000	11.85983500000000	0.00000000000000	0.00000000000000	4.13782600000000	0.00000000000000	
